<svg width="24" height="25" viewBox="0 0 24 25" fill="none" xmlns="http://www.w3.org/2000/svg">
<path d="M22 20.4462H2V18.4462H3V11.4772C3 6.48917 7.03 2.44617 12 2.44617C16.97 2.44617 21 6.48917 21 11.4772V18.4462H22V20.4462ZM5 18.4462H19V11.4772C19 7.59417 15.866 4.44617 12 4.44617C8.134 4.44617 5 7.59417 5 11.4772V18.4462ZM9.5 21.4462H14.5C14.5 22.1092 14.2366 22.7451 13.7678 23.2139C13.2989 23.6828 12.663 23.9462 12 23.9462C11.337 23.9462 10.7011 23.6828 10.2322 23.2139C9.76339 22.7451 9.5 22.1092 9.5 21.4462Z" fill="#A8A2EA"/>
</svg>
