<svg width="25" height="25" viewBox="0 0 25 25" fill="none" xmlns="http://www.w3.org/2000/svg">
<path d="M4.5 22.4462C4.5 20.3244 5.34285 18.2896 6.84315 16.7893C8.34344 15.289 10.3783 14.4462 12.5 14.4462C14.6217 14.4462 16.6566 15.289 18.1569 16.7893C19.6571 18.2896 20.5 20.3244 20.5 22.4462H18.5C18.5 20.8549 17.8679 19.3287 16.7426 18.2035C15.6174 17.0783 14.0913 16.4462 12.5 16.4462C10.9087 16.4462 9.38258 17.0783 8.25736 18.2035C7.13214 19.3287 6.5 20.8549 6.5 22.4462H4.5ZM12.5 13.4462C9.185 13.4462 6.5 10.7612 6.5 7.44617C6.5 4.13117 9.185 1.44617 12.5 1.44617C15.815 1.44617 18.5 4.13117 18.5 7.44617C18.5 10.7612 15.815 13.4462 12.5 13.4462ZM12.5 11.4462C14.71 11.4462 16.5 9.65617 16.5 7.44617C16.5 5.23617 14.71 3.44617 12.5 3.44617C10.29 3.44617 8.5 5.23617 8.5 7.44617C8.5 9.65617 10.29 11.4462 12.5 11.4462Z" fill="#A8A2EA"/>
</svg>
