<svg width="71" height="71" viewBox="0 0 71 71" fill="none" xmlns="http://www.w3.org/2000/svg">
<g clip-path="url(#clip0_284_7818)">
<path d="M23.5 39.1442V22.466C23.6444 22.2254 23.8573 22.1598 24.1315 22.1616C25.8891 22.17 27.6472 22.1658 29.4053 22.1658H29.7397V21.8302C29.7397 20.6916 29.7397 19.553 29.7397 18.4138C29.7397 18.0066 29.8961 17.8533 30.2991 17.8467C30.4254 17.8467 30.5511 17.8467 30.6984 17.8467C30.6984 17.2332 30.7087 16.6551 30.6942 16.0783C30.687 15.8041 30.7598 15.5911 30.9986 15.4468H39.9996C40.2372 15.5917 40.3106 15.8077 40.304 16.0789C40.2889 16.6642 40.2992 17.25 40.2992 17.837C40.3924 17.8418 40.4417 17.8455 40.491 17.8461C41.1827 17.8557 41.2591 17.9339 41.2591 18.628C41.2591 20.2574 41.2627 21.8868 41.2549 23.5155C41.2549 23.72 41.3102 23.8313 41.4991 23.9312C43.1832 24.8225 44.8625 25.7278 46.5437 26.6276C47.4832 27.1304 47.4952 27.1298 47.497 28.1914C47.5022 31.7497 47.5022 35.308 47.497 38.8664C47.497 39.3096 47.3418 39.4486 46.86 39.4486C39.2839 39.4486 31.7075 39.45 24.1309 39.4528C23.8609 39.4498 23.6456 39.3848 23.5 39.1442ZM32.1396 38.4706V38.135C32.1396 36.6958 32.1396 35.2563 32.1396 33.8164C32.1396 33.3514 32.2845 33.2065 32.7477 33.2059C34.5773 33.2059 36.4068 33.2059 38.2361 33.2059C38.7173 33.2059 38.858 33.3478 38.8586 33.8326C38.8586 35.2725 38.8586 36.7123 38.8586 38.1518V38.461H40.2811V18.8253H30.7177V38.4706H32.1396ZM41.282 24.9128V38.461H46.5292C46.5346 38.408 46.5394 38.378 46.5394 38.3485C46.5394 34.8804 46.5372 31.4119 46.5328 27.943C46.5253 27.8801 46.504 27.8196 46.4706 27.7657C46.4371 27.7119 46.3922 27.6661 46.3392 27.6314C45.4839 27.1569 44.6189 26.6997 43.757 26.2378L41.282 24.9128ZM24.481 23.1396V38.4604H29.7222V36.0851H26.0533C25.5655 36.0851 25.4229 35.945 25.4217 35.4674C25.4217 34.9177 25.4217 34.3679 25.4217 33.8182C25.4217 33.3526 25.5667 33.2065 26.028 33.2059C27.1576 33.2059 28.2871 33.2059 29.4167 33.2059H29.724V31.7654H26.0551C25.5576 31.7654 25.4223 31.6258 25.4211 31.1194C25.4211 30.5801 25.4211 30.0403 25.4211 29.5002C25.4211 29.0335 25.5655 28.8867 26.0226 28.8861C27.1521 28.8861 28.2817 28.8861 29.4113 28.8861H29.721V27.4456H29.3848C28.2649 27.4456 27.1451 27.4456 26.0256 27.4456C25.5661 27.4456 25.4241 27.297 25.4205 26.8321C25.4205 26.2823 25.4205 25.7326 25.4205 25.1828C25.4205 24.7053 25.5637 24.5669 26.0527 24.5669C27.1726 24.5669 28.2923 24.5669 29.4119 24.5669H29.724V23.1396H24.481ZM37.8782 38.4718V34.1893H33.1158V38.4718H37.8782ZM31.6734 17.8256H39.3151V16.4212H31.6764L31.6734 17.8256ZM26.3931 26.464H29.7259V25.5419H26.3931V26.464ZM29.7222 30.791V29.8653H26.4027V30.791H29.7222ZM26.4021 34.1779V35.1011H29.7228V34.1779H26.4021Z" fill="#A8A2EA"/>
<path d="M35.02 21.6883C35.02 21.989 35.0242 22.2897 35.02 22.5863C35.014 22.9562 34.8558 23.1204 34.4919 23.124C33.8832 23.13 33.2744 23.13 32.6653 23.124C32.314 23.1204 32.1474 22.958 32.1438 22.6115C32.137 21.9928 32.137 21.3741 32.1438 20.7554C32.148 20.421 32.311 20.2531 32.6406 20.2489C33.2689 20.2413 33.8977 20.2413 34.5268 20.2489C34.8534 20.2538 35.0116 20.4234 35.0194 20.7602C35.0254 21.0693 35.0194 21.3785 35.02 21.6883ZM33.1206 21.2203V22.143H34.0456V21.2203H33.1206Z" fill="#A8A2EA"/>
<path d="M38.8587 21.6961C38.8587 22.0052 38.8653 22.315 38.8587 22.6242C38.8497 22.9538 38.686 23.1192 38.354 23.1234C37.7349 23.1306 37.1162 23.1306 36.4979 23.1234C36.1496 23.1198 35.9872 22.9538 35.9836 22.6037C35.9768 21.995 35.9768 21.3861 35.9836 20.777C35.9872 20.4113 36.1496 20.2507 36.5189 20.2477C37.1276 20.2421 37.7363 20.2421 38.345 20.2477C38.6933 20.2513 38.8527 20.4162 38.8599 20.7668C38.8641 21.0772 38.8593 21.3863 38.8587 21.6961ZM36.9532 22.1448H37.8753V21.2203H36.9532V22.1448Z" fill="#A8A2EA"/>
<path d="M32.1394 25.9894C32.1394 25.6887 32.1346 25.388 32.1394 25.0914C32.146 24.7384 32.3036 24.5724 32.6501 24.5682C33.2688 24.5618 33.8875 24.5618 34.5062 24.5682C34.8515 24.5724 35.012 24.7396 35.0157 25.0933C35.0217 25.7019 35.0217 26.3106 35.0157 26.9193C35.012 27.2802 34.846 27.4414 34.4743 27.4444C33.8757 27.4492 33.277 27.4492 32.6783 27.4444C32.2976 27.4408 32.1436 27.2778 32.137 26.8874C32.1358 26.5885 32.1388 26.289 32.1394 25.9894ZM33.1156 25.5401V26.4664H34.0365V25.5401H33.1156Z" fill="#A8A2EA"/>
<path d="M37.3828 27.445C37.0821 27.445 36.7813 27.4516 36.4842 27.445C36.1522 27.4366 35.9856 27.2748 35.982 26.9439C35.9748 26.3156 35.9748 25.6869 35.982 25.0577C35.9862 24.7432 36.1522 24.5765 36.4662 24.5711C37.1049 24.5627 37.7437 24.5627 38.3825 24.5711C38.6796 24.5753 38.8492 24.7438 38.854 25.0397C38.8644 25.6784 38.8644 26.3172 38.854 26.956C38.8504 27.2705 38.6826 27.4372 38.3692 27.4438C38.0414 27.4522 37.7118 27.445 37.3828 27.445ZM36.957 25.5407V26.4652H37.8748V25.5407H36.957Z" fill="#A8A2EA"/>
<path d="M35.0191 30.3555C35.0191 30.6448 35.0233 30.9341 35.0191 31.2234C35.0131 31.5945 34.8561 31.76 34.4934 31.7648C33.8847 31.7708 33.2759 31.7708 32.6668 31.7648C32.3059 31.7612 32.1447 31.5951 32.1423 31.2234C32.1375 30.6244 32.1375 30.0255 32.1423 29.4268C32.1453 29.0455 32.3071 28.8891 32.6974 28.8855C33.2861 28.8811 33.8749 28.8811 34.464 28.8855C34.8633 28.8855 35.0155 29.0467 35.0197 29.4563C35.0215 29.7564 35.0191 30.056 35.0191 30.3555ZM34.0459 29.8611H33.1179V30.7838H34.0459V29.8611Z" fill="#A8A2EA"/>
<path d="M38.859 30.3181C38.859 30.6279 38.865 30.937 38.859 31.2462C38.8512 31.5957 38.69 31.7599 38.3405 31.7635C37.7222 31.7695 37.1035 31.7695 36.4844 31.7635C36.1535 31.7599 35.9875 31.5932 35.9839 31.2612C35.9767 30.6325 35.9767 30.0038 35.9839 29.375C35.9881 29.061 36.1553 28.8938 36.4705 28.8902C37.1089 28.8818 37.7474 28.8818 38.3862 28.8902C38.6827 28.895 38.8463 29.0641 38.8566 29.3612C38.8668 29.6794 38.8584 30.0017 38.859 30.3181ZM36.9613 29.8586V30.7837H37.8834V29.8586H36.9613Z" fill="#A8A2EA"/>
<path d="M42.2197 30.2888C42.2197 29.988 42.2131 29.6873 42.2197 29.3908C42.2282 29.0587 42.3894 28.8921 42.7208 28.8885C43.3495 28.8809 43.9782 28.8809 44.607 28.8885C44.9216 28.8927 45.0882 29.0587 45.0942 29.3733C45.1026 30.0113 45.1026 30.6498 45.0942 31.289C45.09 31.5861 44.921 31.7558 44.625 31.7606C43.9863 31.7706 43.3475 31.7706 42.7087 31.7606C42.3942 31.7564 42.2306 31.5885 42.2215 31.2752C42.2125 30.948 42.2197 30.6184 42.2197 30.2888ZM44.13 29.8599H43.1953V30.7838H44.13V29.8599Z" fill="#A8A2EA"/>
<path d="M45.0995 34.6584C45.0995 34.9592 45.1043 35.2569 45.0995 35.5564C45.0923 35.9101 44.9353 36.0785 44.5907 36.0827C43.9723 36.09 43.3536 36.09 42.7345 36.0827C42.3881 36.0791 42.2263 35.9119 42.2233 35.5601C42.2172 34.9514 42.2172 34.3427 42.2233 33.734C42.2269 33.3695 42.3905 33.2101 42.7616 33.2071C43.3602 33.2015 43.9589 33.2015 44.5576 33.2071C44.9401 33.2071 45.0953 33.3713 45.0989 33.7598C45.1031 34.0594 45.0995 34.3589 45.0995 34.6584ZM43.2049 34.1719V35.1053H44.1173V34.1719H43.2049Z" fill="#A8A2EA"/>
</g>
<path d="M11.84 60.4492V51.8092H15.254C15.338 51.8092 15.438 51.8132 15.554 51.8212C15.67 51.8252 15.782 51.8372 15.89 51.8572C16.358 51.9292 16.75 52.0892 17.066 52.3372C17.386 52.5852 17.626 52.8992 17.786 53.2792C17.946 53.6552 18.026 54.0732 18.026 54.5332C18.026 54.9892 17.944 55.4072 17.78 55.7872C17.62 56.1632 17.38 56.4772 17.06 56.7292C16.744 56.9772 16.354 57.1372 15.89 57.2092C15.782 57.2252 15.67 57.2372 15.554 57.2452C15.438 57.2532 15.338 57.2572 15.254 57.2572H12.908V60.4492H11.84ZM12.908 56.2432H15.218C15.294 56.2432 15.38 56.2392 15.476 56.2312C15.576 56.2232 15.67 56.2092 15.758 56.1892C16.034 56.1252 16.258 56.0092 16.43 55.8412C16.606 55.6692 16.734 55.4692 16.814 55.2412C16.894 55.0092 16.934 54.7732 16.934 54.5332C16.934 54.2932 16.894 54.0592 16.814 53.8312C16.734 53.5992 16.606 53.3972 16.43 53.2252C16.258 53.0532 16.034 52.9372 15.758 52.8772C15.67 52.8532 15.576 52.8392 15.476 52.8352C15.38 52.8272 15.294 52.8232 15.218 52.8232H12.908V56.2432ZM19.2228 60.4492V53.9692H20.1768V55.5352L20.0208 55.3312C20.0968 55.1312 20.1948 54.9472 20.3148 54.7792C20.4388 54.6112 20.5768 54.4732 20.7288 54.3652C20.8968 54.2292 21.0868 54.1252 21.2988 54.0532C21.5108 53.9812 21.7268 53.9392 21.9468 53.9272C22.1668 53.9112 22.3728 53.9252 22.5648 53.9692V54.9712C22.3408 54.9112 22.0948 54.8952 21.8268 54.9232C21.5588 54.9512 21.3108 55.0492 21.0828 55.2172C20.8748 55.3652 20.7128 55.5452 20.5968 55.7572C20.4848 55.9692 20.4068 56.1992 20.3628 56.4472C20.3188 56.6912 20.2968 56.9412 20.2968 57.1972V60.4492H19.2228ZM26.3422 60.6292C25.6982 60.6292 25.1422 60.4832 24.6742 60.1912C24.2102 59.8992 23.8522 59.4952 23.6002 58.9792C23.3482 58.4632 23.2222 57.8712 23.2222 57.2032C23.2222 56.5232 23.3502 55.9272 23.6062 55.4152C23.8622 54.9032 24.2242 54.5052 24.6922 54.2212C25.1602 53.9332 25.7102 53.7892 26.3422 53.7892C26.9902 53.7892 27.5482 53.9352 28.0162 54.2272C28.4842 54.5152 28.8422 54.9172 29.0902 55.4332C29.3422 55.9452 29.4682 56.5352 29.4682 57.2032C29.4682 57.8792 29.3422 58.4752 29.0902 58.9912C28.8382 59.5032 28.4782 59.9052 28.0102 60.1972C27.5422 60.4852 26.9862 60.6292 26.3422 60.6292ZM26.3422 59.6152C27.0142 59.6152 27.5142 59.3912 27.8422 58.9432C28.1702 58.4952 28.3342 57.9152 28.3342 57.2032C28.3342 56.4712 28.1682 55.8892 27.8362 55.4572C27.5042 55.0212 27.0062 54.8032 26.3422 54.8032C25.8902 54.8032 25.5182 54.9052 25.2262 55.1092C24.9342 55.3132 24.7162 55.5952 24.5722 55.9552C24.4282 56.3152 24.3562 56.7312 24.3562 57.2032C24.3562 57.9312 24.5242 58.5152 24.8602 58.9552C25.1962 59.3952 25.6902 59.6152 26.3422 59.6152ZM33.7652 60.6292C33.1572 60.6292 32.6452 60.4792 32.2292 60.1792C31.8132 59.8752 31.4972 59.4652 31.2812 58.9492C31.0692 58.4292 30.9632 57.8472 30.9632 57.2032C30.9632 56.5512 31.0692 55.9672 31.2812 55.4512C31.4972 54.9352 31.8132 54.5292 32.2292 54.2332C32.6492 53.9372 33.1632 53.7892 33.7712 53.7892C34.3712 53.7892 34.8872 53.9392 35.3192 54.2392C35.7552 54.5352 36.0892 54.9412 36.3212 55.4572C36.5532 55.9732 36.6692 56.5552 36.6692 57.2032C36.6692 57.8512 36.5532 58.4332 36.3212 58.9492C36.0892 59.4652 35.7552 59.8752 35.3192 60.1792C34.8872 60.4792 34.3692 60.6292 33.7652 60.6292ZM30.7832 63.3292V53.9692H31.7372V58.7392H31.8572V63.3292H30.7832ZM33.6332 59.6512C34.0612 59.6512 34.4152 59.5432 34.6952 59.3272C34.9752 59.1112 35.1852 58.8192 35.3252 58.4512C35.4652 58.0792 35.5352 57.6632 35.5352 57.2032C35.5352 56.7472 35.4652 56.3352 35.3252 55.9672C35.1892 55.5992 34.9772 55.3072 34.6892 55.0912C34.4052 54.8752 34.0432 54.7672 33.6032 54.7672C33.1832 54.7672 32.8352 54.8712 32.5592 55.0792C32.2832 55.2832 32.0772 55.5692 31.9412 55.9372C31.8052 56.3012 31.7372 56.7232 31.7372 57.2032C31.7372 57.6752 31.8032 58.0972 31.9352 58.4692C32.0712 58.8372 32.2792 59.1272 32.5592 59.3392C32.8392 59.5472 33.1972 59.6512 33.6332 59.6512ZM40.7925 60.6292C40.1565 60.6292 39.6005 60.4892 39.1245 60.2092C38.6525 59.9252 38.2845 59.5312 38.0205 59.0272C37.7565 58.5192 37.6245 57.9272 37.6245 57.2512C37.6245 56.5432 37.7545 55.9312 38.0145 55.4152C38.2745 54.8952 38.6365 54.4952 39.1005 54.2152C39.5685 53.9312 40.1165 53.7892 40.7445 53.7892C41.3965 53.7892 41.9505 53.9392 42.4065 54.2392C42.8665 54.5392 43.2105 54.9672 43.4385 55.5232C43.6705 56.0792 43.7705 56.7412 43.7385 57.5092H42.6585V57.1252C42.6465 56.3292 42.4845 55.7352 42.1725 55.3432C41.8605 54.9472 41.3965 54.7492 40.7805 54.7492C40.1205 54.7492 39.6185 54.9612 39.2745 55.3852C38.9305 55.8092 38.7585 56.4172 38.7585 57.2092C38.7585 57.9732 38.9305 58.5652 39.2745 58.9852C39.6185 59.4052 40.1085 59.6152 40.7445 59.6152C41.1725 59.6152 41.5445 59.5172 41.8605 59.3212C42.1765 59.1252 42.4245 58.8432 42.6045 58.4752L43.6305 58.8292C43.3785 59.4012 42.9985 59.8452 42.4905 60.1612C41.9865 60.4732 41.4205 60.6292 40.7925 60.6292ZM38.3985 57.5092V56.6512H43.1865V57.5092H38.3985ZM45.0744 60.4492V53.9692H46.0284V55.5352L45.8724 55.3312C45.9484 55.1312 46.0464 54.9472 46.1664 54.7792C46.2904 54.6112 46.4284 54.4732 46.5804 54.3652C46.7484 54.2292 46.9384 54.1252 47.1504 54.0532C47.3624 53.9812 47.5784 53.9392 47.7984 53.9272C48.0184 53.9112 48.2244 53.9252 48.4164 53.9692V54.9712C48.1924 54.9112 47.9464 54.8952 47.6784 54.9232C47.4104 54.9512 47.1624 55.0492 46.9344 55.2172C46.7264 55.3652 46.5644 55.5452 46.4484 55.7572C46.3364 55.9692 46.2584 56.1992 46.2144 56.4472C46.1704 56.6912 46.1484 56.9412 46.1484 57.1972V60.4492H45.0744ZM53.1689 60.4492C52.7849 60.5252 52.4049 60.5552 52.0289 60.5392C51.6569 60.5272 51.3249 60.4532 51.0329 60.3172C50.7409 60.1772 50.5189 59.9612 50.3669 59.6692C50.2389 59.4132 50.1689 59.1552 50.1569 58.8952C50.1489 58.6312 50.1449 58.3332 50.1449 58.0012V52.1692H51.2129V57.9532C51.2129 58.2172 51.2149 58.4432 51.2189 58.6312C51.2269 58.8192 51.2689 58.9812 51.3449 59.1172C51.4889 59.3732 51.7169 59.5232 52.0289 59.5672C52.3449 59.6112 52.7249 59.5992 53.1689 59.5312V60.4492ZM48.8309 54.8512V53.9692H53.1689V54.8512H48.8309ZM55.2088 63.3292L56.4628 59.9212L56.4808 60.9292L53.6488 53.9692H54.7708L56.9908 59.5672H56.6068L58.6888 53.9692H59.7747L56.2468 63.3292H55.2088Z" fill="#A8A2EA"/>
<defs>
<clipPath id="clip0_284_7818">
<rect width="24" height="24.003" fill="white" transform="translate(23.5 15.4462)"/>
</clipPath>
</defs>
</svg>
