<svg width="25" height="25" viewBox="0 0 25 25" fill="none" xmlns="http://www.w3.org/2000/svg">
<g clip-path="url(#clip0_284_7819)">
<path d="M0.5 24.1442V7.46597C0.644354 7.22538 0.857275 7.15982 1.13155 7.16163C2.88905 7.17005 4.64716 7.16584 6.40527 7.16584H6.73969V6.83022C6.73969 5.69163 6.73969 4.55304 6.73969 3.41385C6.73969 3.00665 6.89607 2.85327 7.29906 2.84666C7.42537 2.84666 7.55108 2.84666 7.69844 2.84666C7.69844 2.23315 7.70866 1.65514 7.69423 1.07832C7.68701 0.804053 7.75979 0.591131 7.99857 0.446777H16.9996C17.2372 0.591732 17.3106 0.807662 17.304 1.07893C17.2889 1.66416 17.2992 2.25 17.2992 2.83703C17.3924 2.84185 17.4417 2.84545 17.491 2.84606C18.1827 2.85568 18.2591 2.93387 18.2591 3.62797C18.2591 5.25736 18.2627 6.88676 18.2549 8.51555C18.2549 8.72005 18.3102 8.83132 18.4991 8.93116C20.1832 9.82255 21.8625 10.7278 23.5437 11.6276C24.4832 12.1304 24.4952 12.1298 24.497 13.1914C24.5022 16.7497 24.5022 20.308 24.497 23.8664C24.497 24.3096 24.3418 24.4486 23.86 24.4486C16.2839 24.4486 8.70751 24.45 1.13095 24.4528C0.860884 24.4498 0.645557 24.3848 0.5 24.1442ZM9.13957 23.4706V23.135C9.13957 21.6958 9.13957 20.2563 9.13957 18.8164C9.13957 18.3514 9.28452 18.2065 9.74766 18.2059C11.5773 18.2059 13.4068 18.2059 15.2361 18.2059C15.7173 18.2059 15.858 18.3478 15.8586 18.8326C15.8586 20.2725 15.8586 21.7123 15.8586 23.1518V23.461H17.2811V3.82525H7.71768V23.4706H9.13957ZM18.282 9.91277V23.461H23.5292C23.5346 23.408 23.5394 23.378 23.5394 23.3485C23.5394 19.8804 23.5372 16.4119 23.5328 12.943C23.5253 12.8801 23.504 12.8196 23.4706 12.7657C23.4371 12.7119 23.3922 12.6661 23.3392 12.6314C22.4839 12.1569 21.6189 11.6997 20.757 11.2378L18.282 9.91277ZM1.481 8.13962V23.4604H6.72224V21.0851H3.05326C2.56546 21.0851 2.42291 20.945 2.42171 20.4674C2.42171 19.9177 2.42171 19.3679 2.42171 18.8182C2.42171 18.3526 2.56666 18.2065 3.02799 18.2059C4.15756 18.2059 5.28713 18.2059 6.4167 18.2059H6.72405V16.7654H3.05506C2.55764 16.7654 2.42231 16.6258 2.42111 16.1194C2.42111 15.5801 2.42111 15.0403 2.42111 14.5002C2.42111 14.0335 2.56546 13.8867 3.02258 13.8861C4.15215 13.8861 5.28172 13.8861 6.41128 13.8861H6.72104V12.4456H6.38482C5.26487 12.4456 4.14513 12.4456 3.02559 12.4456C2.56606 12.4456 2.42411 12.297 2.42051 11.8321C2.42051 11.2823 2.42051 10.7326 2.42051 10.1828C2.42051 9.70526 2.56366 9.56692 3.05265 9.56692C4.1726 9.56692 5.29234 9.56692 6.41188 9.56692H6.72405V8.13962H1.481ZM14.8782 23.4718V19.1893H10.1158V23.4718H14.8782ZM8.67342 2.82561H16.3151V1.42116H8.67643L8.67342 2.82561ZM3.39309 11.464H6.72585V10.5419H3.39309V11.464ZM6.72224 15.791V14.8653H3.40271V15.791H6.72224ZM3.40211 19.1779V20.1011H6.72285V19.1779H3.40211Z" fill="#A8A2EA"/>
<path d="M12.02 6.68827C12.02 6.989 12.0242 7.28974 12.02 7.58627C12.014 7.95617 11.8558 8.12037 11.4919 8.12398C10.8832 8.13 10.2744 8.13 9.66526 8.12398C9.314 8.12037 9.14739 7.95798 9.14378 7.61153C9.13697 6.99281 9.13697 6.3741 9.14378 5.75538C9.14799 5.42096 9.31099 5.25315 9.6406 5.24894C10.2689 5.24132 10.8977 5.24132 11.5268 5.24894C11.8534 5.25375 12.0116 5.42337 12.0194 5.76019C12.0254 6.06935 12.0194 6.37851 12.02 6.68827ZM10.1206 6.22032V7.14298H11.0456V6.22032H10.1206Z" fill="#A8A2EA"/>
<path d="M15.8587 6.69609C15.8587 7.00525 15.8653 7.31501 15.8587 7.62416C15.8497 7.95377 15.686 8.11918 15.354 8.12339C14.7349 8.1306 14.1162 8.1306 13.4979 8.12339C13.1496 8.11978 12.9872 7.95377 12.9836 7.60371C12.9768 6.99502 12.9768 6.38613 12.9836 5.77704C12.9872 5.41134 13.1496 5.25075 13.5189 5.24774C14.1276 5.24213 14.7363 5.24213 15.345 5.24774C15.6933 5.25135 15.8527 5.41615 15.8599 5.76681C15.8641 6.07717 15.8593 6.38633 15.8587 6.69609ZM13.9532 7.14479H14.8753V6.22032H13.9532V7.14479Z" fill="#A8A2EA"/>
<path d="M9.13941 10.9894C9.13941 10.6887 9.13459 10.388 9.13941 10.0914C9.14602 9.73838 9.30361 9.57238 9.65006 9.56817C10.2688 9.56175 10.8875 9.56175 11.5062 9.56817C11.8515 9.57238 12.012 9.73959 12.0157 10.0933C12.0217 10.7019 12.0217 11.3106 12.0157 11.9193C12.012 12.2802 11.846 12.4414 11.4743 12.4444C10.8757 12.4492 10.277 12.4492 9.67833 12.4444C9.29759 12.4408 9.14362 12.2778 9.137 11.8874C9.1358 11.5885 9.1388 11.289 9.13941 10.9894ZM10.1156 10.5401V11.4664H11.0365V10.5401H10.1156Z" fill="#A8A2EA"/>
<path d="M14.3828 12.445C14.0821 12.445 13.7813 12.4516 13.4842 12.445C13.1522 12.4366 12.9856 12.2748 12.982 11.9439C12.9748 11.3156 12.9748 10.6869 12.982 10.0577C12.9862 9.74316 13.1522 9.57655 13.4662 9.57113C14.1049 9.56271 14.7437 9.56271 15.3825 9.57113C15.6796 9.57535 15.8492 9.74376 15.854 10.0397C15.8644 10.6784 15.8644 11.3172 15.854 11.956C15.8504 12.2705 15.6826 12.4372 15.3692 12.4438C15.0414 12.4522 14.7118 12.445 14.3828 12.445ZM13.957 10.5407V11.4652H14.8748V10.5407H13.957Z" fill="#A8A2EA"/>
<path d="M12.0191 15.3555C12.0191 15.6448 12.0233 15.9341 12.0191 16.2234C12.0131 16.5945 11.8561 16.76 11.4934 16.7648C10.8847 16.7708 10.2759 16.7708 9.66677 16.7648C9.30588 16.7612 9.14469 16.5951 9.14228 16.2234C9.13747 15.6244 9.13747 15.0255 9.14228 14.4268C9.14529 14.0455 9.30708 13.8891 9.69744 13.8855C10.2861 13.8811 10.8749 13.8811 11.464 13.8855C11.8633 13.8855 12.0155 14.0467 12.0197 14.4563C12.0215 14.7564 12.0191 15.056 12.0191 15.3555ZM11.0459 14.8611H10.1179V15.7838H11.0459V14.8611Z" fill="#A8A2EA"/>
<path d="M15.859 15.3181C15.859 15.6279 15.865 15.937 15.859 16.2462C15.8512 16.5957 15.69 16.7599 15.3405 16.7635C14.7222 16.7695 14.1035 16.7695 13.4844 16.7635C13.1535 16.7599 12.9875 16.5932 12.9839 16.2612C12.9767 15.6325 12.9767 15.0038 12.9839 14.375C12.9881 14.061 13.1553 13.8938 13.4705 13.8902C14.1089 13.8818 14.7474 13.8818 15.3862 13.8902C15.6827 13.895 15.8463 14.0641 15.8566 14.3612C15.8668 14.6794 15.8584 15.0017 15.859 15.3181ZM13.9613 14.8586V15.7837H14.8834V14.8586H13.9613Z" fill="#A8A2EA"/>
<path d="M19.2197 15.2888C19.2197 14.988 19.2131 14.6873 19.2197 14.3908C19.2282 14.0587 19.3894 13.8921 19.7208 13.8885C20.3495 13.8809 20.9782 13.8809 21.607 13.8885C21.9216 13.8927 22.0882 14.0587 22.0942 14.3733C22.1026 15.0113 22.1026 15.6498 22.0942 16.289C22.09 16.5861 21.921 16.7558 21.625 16.7606C20.9863 16.7706 20.3475 16.7706 19.7087 16.7606C19.3942 16.7564 19.2306 16.5885 19.2215 16.2752C19.2125 15.948 19.2197 15.6184 19.2197 15.2888ZM21.13 14.8599H20.1953V15.7838H21.13V14.8599Z" fill="#A8A2EA"/>
<path d="M22.0995 19.6584C22.0995 19.9592 22.1043 20.2569 22.0995 20.5564C22.0923 20.9101 21.9353 21.0785 21.5907 21.0827C20.9723 21.09 20.3536 21.09 19.7345 21.0827C19.3881 21.0791 19.2263 20.9119 19.2233 20.5601C19.2172 19.9514 19.2172 19.3427 19.2233 18.734C19.2269 18.3695 19.3905 18.2101 19.7616 18.2071C20.3602 18.2015 20.9589 18.2015 21.5576 18.2071C21.9401 18.2071 22.0953 18.3713 22.0989 18.7598C22.1031 19.0594 22.0995 19.3589 22.0995 19.6584ZM20.2049 19.1719V20.1053H21.1173V19.1719H20.2049Z" fill="#A8A2EA"/>
</g>
<defs>
<clipPath id="clip0_284_7819">
<rect width="24" height="24.003" fill="white" transform="translate(0.5 0.446167)"/>
</clipPath>
</defs>
</svg>
