<svg width="25" height="25" viewBox="0 0 25 25" fill="none" xmlns="http://www.w3.org/2000/svg">
<path d="M2.5 22.4462C2.5 20.3244 3.34285 18.2896 4.84315 16.7893C6.34344 15.289 8.37827 14.4462 10.5 14.4462C12.6217 14.4462 14.6566 15.289 16.1569 16.7893C17.6571 18.2896 18.5 20.3244 18.5 22.4462H16.5C16.5 20.8549 15.8679 19.3287 14.7426 18.2035C13.6174 17.0783 12.0913 16.4462 10.5 16.4462C8.9087 16.4462 7.38258 17.0783 6.25736 18.2035C5.13214 19.3287 4.5 20.8549 4.5 22.4462H2.5ZM10.5 13.4462C7.185 13.4462 4.5 10.7612 4.5 7.44617C4.5 4.13117 7.185 1.44617 10.5 1.44617C13.815 1.44617 16.5 4.13117 16.5 7.44617C16.5 10.7612 13.815 13.4462 10.5 13.4462ZM10.5 11.4462C12.71 11.4462 14.5 9.65617 14.5 7.44617C14.5 5.23617 12.71 3.44617 10.5 3.44617C8.29 3.44617 6.5 5.23617 6.5 7.44617C6.5 9.65617 8.29 11.4462 10.5 11.4462ZM18.784 15.1492C20.1893 15.7821 21.382 16.8074 22.2186 18.1019C23.0552 19.3963 23.5002 20.9049 23.5 22.4462H21.5C21.5002 21.2901 21.1666 20.1587 20.5391 19.1878C19.9116 18.2168 19.0171 17.4478 17.963 16.9732L18.783 15.1492H18.784ZM18.096 3.85917C19.1035 4.27446 19.965 4.9797 20.571 5.8854C21.1771 6.79109 21.5004 7.85641 21.5 8.94617C21.5004 10.3185 20.9877 11.6414 20.0625 12.655C19.1374 13.6686 17.8667 14.2996 16.5 14.4242V12.4112C17.2409 12.305 17.9283 11.9642 18.4613 11.4386C18.9943 10.9131 19.3447 10.2305 19.4612 9.4911C19.5776 8.75171 19.454 7.99446 19.1084 7.33052C18.7628 6.66658 18.2134 6.13091 17.541 5.80217L18.096 3.85917Z" fill="#A8A2EA"/>
</svg>
